<svg id="icon-cart" xmlns="http://www.w3.org/2000/svg" viewBox="0 0 439.91609 439.91609">
  <path d="M37.63097,63.06932c-4.79536,0-8.67931,3.88713-8.67931,8.67931,0,4.79536,3.88713,8.67931,8.67931,8.67931h46.24934c22.18459,54.8558,43.95145,109.81856,65.91517,164.7821l-20.34395,48.82547c-2.22815,5.25547,2.2917,12.07927,8.00118,12.06997h217.0021c4.58652,.0666,8.80332-4.09296,8.80332-8.67931s-4.21713-8.74596-8.80332-8.67931H150.47283l14.6461-35.26284,211.71654-16.95329c3.62074-.29971,6.8903-3.11212,7.73196-6.64506l26.04179-112.84109c1.12916-5.03755-3.24534-10.54165-8.41037-10.5773H112.91181l-15.1917-37.97537c-1.28054-3.16962-4.58347-5.40692-8.00118-5.42505l-52.08796,.00248ZM180.85235,332.15037c-21.47003,0-39.05882,17.5919-39.05882,39.05884,0,21.47003,17.59189,39.05884,39.05882,39.05884,21.47003,0,39.05884-17.5919,39.05884-39.05884,0-21.47003-17.5919-39.05884-39.05884-39.05884Zm130.20126,0c-21.47003,0-39.05884,17.5919-39.05884,39.05884,0,21.47003,17.5919,39.05884,39.05884,39.05884,21.47003,0,39.05881-17.5919,39.05881-39.05884,0-21.47003-17.5919-39.05884-39.05884-39.05884h.00002Z" fill="currentColor"/>
</svg>