<svg id="icon-user" xmlns="http://www.w3.org/2000/svg" viewBox="0 0 439.91609 439.91609">
  <path d="M299.16704,169.65006c0,43.793-35.504,79.297-79.297,79.297s-79.297-35.504-79.297-79.297,35.504-79.297,79.297-79.297,79.297,35.504,79.297,79.297" fill="currentColor"/>
  <path d="M219.87004,29.64806C114.87004,29.64806,29.56004,114.74207,29.56004,219.95804c0,105,85.09399,190.31,190.31,190.31s190.31-85.09399,190.31-190.31c0-105-85.31201-190.31-190.31-190.31v.00002Zm128.19,308.77v-5.79691c0-36.96899-30.078-67.15601-67.15601-67.15601h-123.48001c-36.96899,0-67.15601,30.078-67.15601,67.15601v4.70309c-28.10899-30.953-45.28101-72.078-45.28101-117.35999,0-96.35901,78.203-174.56,174.56-174.56s174.67001,78.203,174.67001,174.56c.21875,45.828-17.172,87.28101-46.15601,118.45001l-.00098,.00378Z" fill="currentColor" />
</svg>