<svg viewBox="0 0 142.00234 86.62525" xmlns="http://www.w3.org/2000/svg"><g fill="#231f20"><path d="m24.32733 17.86204c0-13.46002 0-14.20508 8.50586-14.95508.46484 0 .83984-1.68164-.09375-1.58893-2.99023.375-7.57031.56158-11.49609.56158-5.51172 0-9.81445-.09381-13.83014-.56158-.9375-.09271-.375 1.58893-.09369 1.58893 8.31641.93457 8.78711.93457 8.78711 14.95508v28.03662c0 20.18359-2.99219 27.75586-15.98242 33.36127-.28131.09381-.09381 1.87109.6543 1.5899 17.94141-7.00983 23.54883-16.54297 23.54883-34.95117v-28.03662z"/><path d="m58.82733 53.77366c2.89838 0 5.79297-1.40045 9.06641-3.73834.37311-.2793-.46869-1.40228-.46869-1.30859-5.88873 1.96289-7.85162.6524-7.94342-2.80469-.09381-5.14008.5625-18.78363.4707-22.89587-.09772-6.26184-3.83594-9.90631-8.88281-9.90631-8.78522 0-19.34381 8.22461-19.53131 11.77637-.18549 1.12201.8399 1.96191 2.2442 1.96191 3.08203 0 6.25781-1.96191 6.25781-3.83197 0-1.2149-.4649-1.6817-.4649-2.89655 0-1.30768 2.61719-2.61719 5.42389-2.61719 2.42383 0 4.29694.37402 5.41992 1.02631 1.77338 1.0293 2.61328 3.36719 2.61328 6.0752 0 1.86823-.09381 6.72858-.18951 10.28033-16.3515.93457-22.14648 5.4209-22.14648 10.5611 0 4.57996 3.2735 8.0351 8.69342 8.0351 4.48438 0 9.5332-2.05273 13.26947-5.41803.37311 3.64459 2.80475 5.70123 6.16803 5.70123zm-14.85742-4.48633c-3.36719 0-5.79486-1.30859-5.79486-4.67377 0-3.6441 2.33588-6.91565 14.57605-7.84723-.0918 2.80267-.2793 7.28711-.37109 9.06201-2.99017 2.43158-5.23425 3.45898-8.4101 3.45898z"/><path d="m141.65741 59.45133c-9.81348-.8418-9.53217-1.30847-9.81348-14.76562l-.56152-28.13037c-.28131-13.45801-.37311-14.0166 9.34668-14.85931.28021 0 .74805-1.77539-.18945-1.68262-4.57709.65332-10.55859.93451-16.72662.46771-1.30762 4.95221-3.9267 11.0274-6.63281 17.19629l-14.01849 32.05713-22.89852-49.06782c-8.03711 0-12.05859 0-16.73041-.65332-.74805-.18457-.4668 1.59082 0 1.68262 7.10352.74799 10.4707 3.7373 10.37592 10.1875l-.65619 32.80219c-.27832 12.99036-.65332 13.83215-8.97168 14.76562-.4668.09381-.74805 1.96289 0 1.77539 4.01947-.56049 6.26166-.56049 11.68066-.56049 4.02148 0 6.54303.1875 9.44141.56049.75.1875.46973-1.77539.18549-1.77539-8.68939-.74597-8.68939-2.42767-8.50085-14.76562l.55945-30.56195 22.23932 46.82568c.37689.74408 1.49799.56049 1.68463.08978l21.77726-49.5307.55861 33.17719c.28119 13.83215-.37207 14.01965-7.66412 14.76562-.4668.09381-.74799 1.96289 0 1.77539 4.11041-.56049 7.57031-.56049 12.99225-.56049 4.01654 0 9.43848.1875 12.42865.56049.74811.1875.37213-1.77539.09381-1.77539z"/><path d="m38.6242 81.25992c-.32031 0-.36719.13092-.36719.19928-.20508 2.6015-2.87701 4.0058-5.28711 4.0058-3.59381 0-7.23047-2.83978-7.23047-8.26758 0-4.25 2.61127-7.10541 6.49811-7.10541 3.72064 0 5.51355 2.18359 5.92377 4.0683.04688.14655.25189.16602.36908.16602.25983 0 .35553-.12299.35553-.24213-.03912-1.1485-.25391-3.41016-.54102-3.6543-.54688-.41797-3.07806-1.39648-5.50201-1.39648-5.73425 0-9.73035 4.79492-9.73035 9.09961 0 4.09369 3.37689 8.44141 9.62885 8.44141 2.58795 0 4.45111-.45508 5.70312-1.39258.32031-.24225.54303-2.60944.5918-3.66211 0-.05859-.0293-.25983-.41211-.25983z"/><path d="m54.216 82.90641c-.07416 0-.30859 0-.3067.1485-.3418 1.51953-.42377 1.8808-4.32611 1.8808h-1.3418c-1.00586 0-1.41608-.13275-1.41608-3.43939v-3.54095h2.45508c2.29303 0 2.34772.28119 2.48444.98425.04688.13672.24219.16602.40039.16602.16211-.00189.26562-.039.31842-.11517.0332-.04694.039-.10162.02728-.15625-.02148-.19928-.02148-.68945-.02148-.95319 0-.61316.05469-1.18549.14648-1.5293l.02148-.08386-.0625-.0625c-.0918-.0899-.375-.125-.47852-.125-.13477 0-.21875.04486-.25195.14838-.01373.05469-.02539.10547-.0351.1543-.086.44141-.1153.58789-2.54895.58789h-2.45508v-3.08398c0-1.26373.01178-2.52338.10553-3.23828h2.29688c3.35742 0 3.71869.3399 3.9043 1.3399.05469.16394.34369.17767.42773.17767.13086 0 .22266-.0293.27539-.0957.03705-.04492.05267-.10162.04297-.15039-.0235-.19342-.0235-.69733-.0235-.93951 0-.54681.0274-.97461.16998-1.42377l.06641-.21295-.22266.01764c-1.40045.11908-3.05664.17767-5.07031.17767-2.82233 0-5.20703-.06049-6.91803-.17767-.13666 0-.27338.09381-.27338.30859 0 .11517.06451.44531.24609.44531h.00189l.20123.02539q2.26947.26556 2.26947 3.87299v7.58398q0 3.57825-2.26752 3.82233l-.18561.02338c-.05078 0-.11719.01764-.17188.11139-.05847.10352-.1347.37695-.03711.54102.04694.08014.12701.12689.2168.12689l.0274-.00189c1.96478-.13281 4.77148-.15039 6.99219-.15039 1.09375 0 2.11523.04303 2.93359.08008.58984.02545 1.09961.04492 1.49023.04492.4668 0 .70117-.0918.85162-.63867.1543-.53516.38666-1.74225.48627-2.36334.01172-.05859-.00391-.11517-.04297-.164-.08405-.10156-.26562-.12311-.40234-.12311z"/><path d="m70.21209 83.17606c-.086 0-.34955 0-.34766.1543-.33014 1.35535-.375 1.52917-4.22662 1.52917h-1.44141c-1.10541 0-1.33978-.10931-1.33978-3.26172v-7.58398c0-3.63672 0-3.70697 2.19922-3.89642.18945 0 .24805-.2774.24805-.41205 0-.07825-.01758-.14655-.0528-.20123-.04877-.07617-.1308-.1192-.22455-.1192l-.04102.00391c-.71478.0918-1.91022.15039-3.11523.15039-1.43945 0-2.6192-.02539-3.6817-.14636l-.06439-.00983c-.09961 0-.22461.0683-.24219.2558-.01758.17389.06049.43951.27539.48053q2.19922.24609 2.19922 3.89447v7.58398q0 3.58209-2.25 3.82422l-.20703.02148c-.20508.03912-.25977.3457-.2442.50201.01764.20508.15045.27728.25592.27728l.02728-.00189c2.01575-.13672 5.09961-.15039 7.2442-.15039 1.08984 0 2.0351.04303 2.79102.08008.54694.02545 1.01373.04492 1.40619.04492.44733 0 .70319-.09961.85162-.63867.13281-.46295.26556-1.2558.35547-2.11133.01361-.0567-.00195-.11517-.03906-.16211-.02344-.0274-.08789-.10736-.33594-.10736z"/><path d="m85.03143 83.17606c-.08893 0-.35254 0-.34772.1543-.33301 1.35535-.375 1.52917-4.22937 1.52917h-1.44153c-1.10638 0-1.34167-.10931-1.34167-3.26172v-7.58398c0-3.63672 0-3.70697 2.20105-3.89642.18951 0 .25103-.28125.25103-.41205 0-.07825-.01946-.14655-.05181-.20123-.0517-.07617-.13367-.1192-.23138-.1192l-.03711.00391c-.71582.0918-1.9082.15039-3.11621.15039-1.43849 0-2.6192-.02539-3.6778-.14636l-.06726-.00983c-.10162 0-.22375.0683-.24323.2558-.01758.17389.06152.43951.27539.48053q2.19922.24609 2.19922 3.89447v7.58398q0 3.58209-2.24609 3.82422l-.21191.02148c-.20123.03912-.25781.3457-.24609.50201.02246.20508.15429.27728.26166.27728l.02441-.00189c2.01575-.13672 5.09961-.15039 7.2442-.15039 1.09369 0 2.0351.04303 2.79388.08008.54102.02545 1.01373.04492 1.40332.04492.44733 0 .70123-.09961.8526-.63867.18939-.65625.31354-1.70312.35553-2.10944.01257-.05859 0-.11707-.0401-.164-.01953-.0274-.08893-.10736-.33301-.10736z"/><path d="m105.19061 85.47483-.03418-.00983c-1.98633-.14258-2.42584-.82214-3.61133-3.94916l-4.67676-12.20312c-.04694-.13867-.2041-.23438-.3847-.23438-.16705 0-.30573.08008-.37604.22272l-5.48639 12.20886c-1.25781 2.81451-1.84167 3.81061-3.47748 3.93359-.03711 0-.11133.01184-.16412.10352-.06152.10547-.12585.40039-.03412.56061.04492.07617.11621.11719.19635.11719l.36707-.04297c.76569-.09186.92291-.11133 2.2373-.11133 1.05078 0 1.63483.05078 2.39069.14648l.06439.00781c.1192 0 .2608-.09381.2608-.35938 0-.20514-.08209-.42194-.24811-.42194-1.22064-.11127-1.48138-.22461-1.48138-.63666 0-.68365.4502-1.70514 1.07324-3.125l.84467-1.93164h5.5625l.87701 2.32031c.41022 1.07422.79779 2.08588.79779 2.73633 0 .44916-.3056.50385-1.26752.59766l-.3526.039c-.03711 0-.1123.01184-.16394.10352-.06256.10547-.12701.40039-.03235.56061.04199.07617.11432.11719.19629.11719l.04205-.00592c1.11816-.12891 2.5127-.14838 3.85156-.14838 1.09369 0 2.1474.05469 2.8877.14838l.03711.00391c.15228 0 .26172-.1015.28607-.26166.02545-.14062-.01758-.43164-.18158-.48633zm-12.1026-6.70697 2.6123-5.92194 2.14948 5.92194z"/><path d="m124.68963 85.84592c-2.7666 0-6.58301-4.22461-7.97461-7.78131 2.57617-1.11517 3.49609-3.19525 3.49609-4.6582 0-2.6015-2.50488-4.09369-6.87402-4.09369-3.32715 0-5.47949.14453-6.39355.4375-.15924.05273-.24414.21094-.21393.4043.0274.17181.1319.34961.33313.33984l.0791-.01373c.3183-.04291.6142-.08588.86029-.08588 1.23438 0 1.3418.58789 1.3418 3.59381v7.60925q0 3.62109-2.17969 3.8399l-.04694.0058c-.03998 0-.1123.01184-.164.10352-.05957.10547-.12701.40039-.03217.56061.04187.07617.1142.11719.19617.11719l.04199-.00592c1.05573-.12299 2.24121-.14838 3.7002-.14838 1.20325 0 2.3985.05658 3.15332.15228.12988 0 .28131-.08789.28131-.3418 0-.11517-.04492-.4375-.23828-.4375-2.21191-.16986-2.21191-.23816-2.21191-3.8457v-2.81439c.25098.03119.41699.03119.83496.03119.47461 0 1.22461-.04095 1.89062-.1347.71869 2.49213 3.09961 7.94531 10.09277 7.94531.12891 0 .28021-.086.28021-.336 0-.09369-.04486-.4433-.25287-.4433zm-12.03613-8.03906c-.15918 0-.28516.00195-.39459.00586-.14447.00391-.26849.00781-.41498.00189v-4.05469c0-1.76947.04688-2.85742.14838-3.39636l.10449-.00793c.32825-.01947.58209-.0351.91022-.0351 3.1162 0 4.62988 1.36328 4.62988 4.17383 0 2.23047-1.63086 3.3125-4.9834 3.3125z"/><path d="m132.16912 76.32444c-1.74713-1.01373-3.39648-1.97272-3.39648-3.80273 0-1.57819 1.4834-2.42969 2.88275-2.42969 1.8067 0 2.95715.96094 3.2373 2.68164 0 .05469.02539.1524.19733.19135.05658.01373.13379.02155.20801.02155.36328 0 .40039-.16602.40039-.23834 0-.99219-.05762-2.68939-.45703-2.88666-.75299-.4082-1.74518-.82812-3.38477-.82812-3.06934 0-5.12988 2.49609-5.12988 4.82812 0 2.43951 2.04095 3.625 4.01166 4.76947 1.84869 1.07233 3.59772 2.0899 3.59772 4.05469 0 1.9375-1.6123 2.8067-3.21002 2.8067-2.41107 0-3.8916-1.50586-4.07318-4.12305 0-.07812-.0498-.21295-.37787-.21295-.35065 0-.37805.18359-.37805.22852-.03217.586-.07416 1.13678-.11127 1.61719-.10944 1.46881-.11914 1.73834.01459 1.8457 1.41901 1.17969 2.91223 1.72662 4.69629 1.72662 2.9903 0 5.33398-2.31842 5.33398-5.28131 0-2.61127-2.06537-3.81049-4.06146-4.96869z"/></g></svg>